<?xml version="1.0" standalone="no"?>
<!DOCTYPE svg PUBLIC "-//W3C//DTD SVG 20010904//EN"
 "http://www.w3.org/TR/2001/REC-SVG-20010904/DTD/svg10.dtd">
<svg version="1.0" xmlns="http://www.w3.org/2000/svg"
 width="728.000000pt" height="485.000000pt" viewBox="0 0 728.000000 485.000000"
 preserveAspectRatio="xMidYMid meet">
<metadata>
Created by potrace 1.16, written by Peter Selinger 2001-2019
</metadata>
<g transform="translate(0.000000,485.000000) scale(0.100000,-0.100000)"
fill="#000000" stroke="none">
<path d="M3616 4488 c-9 -12 -16 -32 -16 -44 0 -12 -13 -64 -29 -117 -32 -104
-45 -182 -62 -384 -7 -85 -16 -133 -23 -133 -6 0 2 -7 19 -16 19 -10 31 -11
33 -5 2 6 22 11 43 11 24 0 38 4 34 10 -13 22 -5 292 11 353 20 78 63 171 103
221 49 62 41 99 -24 110 -22 4 -47 9 -57 12 -10 3 -23 -4 -32 -18z"/>
<path d="M2469 3781 c-13 -10 -28 -20 -34 -21 -30 -8 -54 -25 -58 -41 -3 -10
-19 -24 -35 -31 -29 -12 -92 -80 -92 -99 0 -5 -7 -6 -15 -3 -8 4 -15 10 -15
15 0 4 7 6 15 3 8 -4 15 -1 15 5 0 6 -5 11 -11 11 -5 0 -7 6 -4 13 4 6 -5 0
-19 -15 -14 -16 -32 -28 -41 -28 -8 0 -15 -4 -15 -10 0 -5 8 -6 17 -3 13 5 15
3 9 -13 -5 -10 -10 -41 -13 -68 -2 -27 -8 -57 -13 -67 -5 -9 -7 -33 -5 -53 3
-25 0 -42 -9 -52 -19 -18 -26 -18 -26 2 0 8 -4 12 -10 9 -5 -3 -10 -24 -10
-45 0 -39 -14 -61 -23 -38 -3 7 -6 2 -6 -12 -1 -20 -3 -22 -11 -10 -5 8 -10
28 -10 43 0 19 -4 26 -12 22 -7 -4 -5 0 5 8 39 32 65 78 65 116 1 31 -3 37
-19 36 -11 -1 -29 -16 -40 -36 l-20 -34 26 30 c32 39 32 26 0 -26 -14 -22 -30
-37 -35 -34 -6 3 -10 0 -10 -9 0 -8 -6 -17 -12 -19 -10 -4 -10 -6 0 -6 16 -1
15 -26 -2 -40 -12 -10 -14 -8 -9 11 4 18 3 20 -6 8 -6 -8 -11 -21 -11 -29 0
-7 -14 -41 -31 -75 -24 -47 -33 -77 -35 -129 -4 -68 8 -84 21 -28 3 16 13 35
21 42 8 6 14 21 14 33 1 11 11 45 24 75 21 49 25 52 34 34 6 -11 9 -37 5 -57
-4 -28 -2 -36 10 -36 8 0 18 6 21 13 3 6 4 -8 2 -32 -3 -25 0 -53 5 -64 8 -13
7 -23 -3 -35 -11 -13 -11 -15 5 -9 13 5 17 1 17 -19 0 -29 -35 -46 -77 -38
-18 3 -35 -1 -48 -11 -20 -16 -20 -16 2 -12 18 4 21 1 18 -22 -1 -14 4 -33 12
-42 12 -14 11 -17 -6 -22 -14 -3 -18 -1 -14 9 10 26 -18 14 -52 -21 -19 -19
-39 -52 -45 -74 -5 -21 -17 -44 -25 -51 -8 -7 -15 -21 -15 -32 0 -10 -4 -16
-10 -13 -6 3 -10 -4 -11 -17 0 -13 -2 -42 -5 -66 -3 -30 -1 -41 7 -36 8 4 9
-3 4 -26 -6 -26 -4 -31 6 -24 9 5 7 -3 -5 -20 -10 -16 -14 -26 -8 -23 5 4 16
-11 25 -33 12 -31 20 -39 34 -35 11 3 9 1 -4 -6 -13 -7 -23 -16 -23 -21 0 -26
-29 25 -48 82 -11 36 -21 59 -21 52 -2 -24 31 -126 44 -142 9 -11 12 -38 8
-96 -4 -68 0 -97 22 -175 15 -52 27 -102 27 -112 -1 -9 3 -15 7 -13 13 9 28
-37 21 -64 -4 -16 -1 -34 10 -50 19 -27 33 -120 19 -120 -5 0 -9 -5 -9 -11 0
-5 4 -8 9 -5 12 8 18 -10 26 -87 4 -37 16 -84 26 -104 11 -21 19 -44 19 -53 0
-32 54 -177 82 -220 17 -24 32 -55 35 -69 2 -14 11 -33 20 -43 8 -9 13 -20 10
-25 -9 -15 78 -128 96 -125 18 3 24 -14 7 -20 -13 -4 14 -74 30 -80 6 -2 12
-11 14 -21 1 -9 11 -26 22 -36 10 -11 37 -39 59 -62 22 -23 73 -63 113 -89 69
-47 71 -49 45 -55 -16 -3 -37 -12 -47 -20 -16 -12 -17 -17 -6 -31 17 -19 123
-74 145 -74 8 0 15 -4 15 -9 0 -4 17 -11 38 -14 20 -3 80 -15 132 -26 137 -28
331 -50 520 -59 158 -7 519 0 645 12 142 14 175 18 175 24 0 4 12 8 28 8 29 2
62 7 102 16 14 4 51 12 83 19 62 13 74 34 29 54 -30 13 -28 20 13 32 54 17
160 80 194 115 17 18 58 61 90 94 32 34 62 70 65 81 4 11 24 44 46 73 27 36
40 64 40 85 0 17 9 41 20 53 11 12 20 26 20 31 0 6 10 19 22 31 38 35 14 31
-27 -5 -21 -19 -44 -35 -51 -35 -17 0 -27 17 -14 25 5 3 10 15 10 27 0 16 3
18 13 9 8 -6 17 -8 20 -4 13 13 7 23 -14 23 -18 0 -19 3 -9 15 9 10 17 12 30
5 13 -7 19 -6 23 5 4 9 1 12 -7 9 -9 -3 -15 5 -18 21 -6 31 10 105 23 105 5 0
9 7 9 16 0 8 7 22 15 30 10 10 14 36 13 88 -1 81 6 98 67 171 23 28 49 64 57
80 36 72 62 115 70 115 4 0 15 14 24 31 9 18 27 42 42 55 14 14 22 27 18 31
-3 4 -12 1 -18 -5 -17 -17 -33 -15 -19 1 6 8 7 17 3 21 -4 4 5 5 21 1 22 -6
27 -4 27 11 0 9 -7 25 -15 34 -13 14 -13 17 0 17 8 0 12 -4 9 -9 -3 -4 1 -8 9
-8 8 0 18 7 21 16 10 25 7 36 -6 27 -34 -21 -51 -1 -32 36 12 22 12 28 0 36
-12 9 -12 15 -1 40 12 27 13 28 14 8 1 -13 5 -23 11 -23 19 0 38 46 45 108 4
34 12 62 17 62 6 0 8 -15 6 -35 -2 -19 0 -35 4 -35 8 0 11 26 8 71 0 14 6 45
14 69 8 24 13 47 11 51 -3 4 -1 29 4 56 6 32 6 65 0 94 -6 24 -12 64 -14 89
-4 65 -16 133 -26 146 -5 6 -10 30 -11 52 -1 23 -5 39 -10 36 -4 -3 -5 2 -2
10 3 8 -4 33 -15 56 -15 32 -16 39 -4 28 14 -11 15 -9 8 22 -4 19 -12 41 -17
47 -6 7 -7 24 -4 38 7 28 6 29 -27 14 -19 -9 -27 -24 -37 -69 -13 -62 -8 -85
18 -75 8 3 19 0 24 -7 6 -10 10 -10 18 2 7 12 9 11 9 -5 -1 -11 1 -29 4 -40 2
-11 2 -14 0 -7 -9 24 -25 12 -19 -15 6 -35 -26 -159 -40 -156 -7 1 -19 -18
-29 -43 -14 -38 -15 -50 -5 -69 8 -14 9 -31 5 -42 -8 -16 -9 -16 -12 5 -3 12
-9 22 -14 22 -5 0 -9 7 -9 15 0 18 -12 19 -28 3 -9 -9 -12 -8 -12 6 0 24 -11
14 -34 -29 -17 -31 -18 -38 -6 -45 9 -5 20 -4 29 3 9 8 8 2 -4 -16 -15 -24
-16 -30 -4 -37 23 -15 18 -108 -9 -160 -26 -48 -114 -140 -135 -140 -13 0 -47
-50 -47 -69 0 -5 12 -21 26 -34 29 -27 27 -55 -10 -100 -22 -27 -23 -27 -60
-12 -36 15 -38 15 -43 -5 -7 -27 -23 -26 -23 3 0 38 -20 49 -41 24 -16 -20
-18 -20 -19 -4 0 10 -12 33 -27 52 -27 34 -28 34 -46 15 -10 -11 -24 -20 -32
-20 -8 0 -20 -10 -26 -22 -17 -32 -98 -131 -115 -141 -8 -4 -14 -18 -14 -31 0
-44 -12 -83 -34 -111 l-23 -29 -36 75 c-25 50 -37 89 -37 117 0 42 -13 56 -24
27 -3 -8 -16 -15 -28 -15 -22 1 -22 1 -5 14 18 14 7 33 -12 22 -5 -3 -20 4
-35 15 -24 19 -31 20 -77 10 -71 -16 -116 -14 -127 4 -7 13 -14 14 -36 5 -40
-15 -41 -14 -85 31 -55 58 -99 39 -53 -22 10 -13 22 -32 25 -42 4 -10 11 -16
16 -13 5 3 11 -3 14 -13 6 -26 52 -20 77 11 15 18 19 20 20 6 0 -9 13 -21 30
-27 37 -13 37 -27 0 -71 -17 -19 -30 -43 -30 -53 0 -16 -3 -17 -15 -7 -10 9
-15 9 -15 1 0 -6 -7 -11 -15 -11 -8 0 -23 -8 -34 -19 -10 -10 -55 -34 -100
-52 -89 -36 -101 -34 -101 23 0 15 -15 46 -34 71 -19 24 -37 55 -41 68 -4 13
-13 31 -19 39 -7 8 -21 32 -31 54 -11 21 -30 42 -41 46 -12 5 -24 16 -27 24
-4 9 -11 16 -17 16 -7 0 -6 -10 3 -27 41 -77 87 -183 87 -198 0 -9 9 -28 20
-42 11 -14 20 -32 20 -39 0 -7 10 -19 23 -25 31 -16 57 -45 57 -63 0 -29 31
-34 97 -16 35 9 63 13 63 8 0 -39 -108 -178 -138 -178 -5 0 -33 -25 -64 -55
-46 -46 -58 -53 -67 -41 -8 10 -32 14 -81 13 -39 -1 -70 1 -70 6 0 6 24 11 43
8 4 0 7 3 7 9 0 14 -10 12 -43 -5 -26 -13 -30 -13 -44 1 -18 17 -40 13 -34 -7
2 -8 3 -25 2 -38 0 -13 4 -30 10 -37 12 -15 6 -44 -10 -44 -5 0 -11 6 -14 13
-2 6 -3 4 -2 -5 5 -28 -14 -32 -24 -6 -6 13 -10 19 -10 14 -1 -6 -11 1 -22 13
-19 21 -23 21 -31 7 -5 -9 -6 -21 -2 -27 4 -6 -1 -9 -12 -8 -11 2 -25 0 -32
-5 -7 -4 -16 -5 -20 -1 -3 3 0 10 7 14 8 5 9 11 3 15 -5 3 -17 -3 -27 -14 -14
-16 -21 -17 -32 -8 -11 9 -16 9 -22 -1 -5 -7 -12 -12 -17 -11 -5 1 -10 -4 -13
-11 -2 -7 1 -9 9 -4 9 5 11 4 6 -4 -12 -18 -28 -2 -20 21 4 14 2 18 -5 14 -15
-10 -14 -47 2 -71 15 -22 28 -55 23 -55 -2 0 -13 16 -25 36 -26 44 -27 74 -2
105 18 24 18 25 -5 94 -24 74 -23 109 5 124 9 5 12 13 7 18 -5 4 -11 2 -13 -4
-8 -23 -43 -15 -43 10 -1 19 -2 20 -11 5 -7 -13 -5 -25 7 -45 l16 -28 -21 24
c-34 38 -13 110 33 112 l21 0 -21 9 c-19 7 -21 14 -17 52 5 41 2 47 -28 72
-19 16 -40 26 -51 23 -12 -4 -18 0 -18 12 0 9 -8 23 -18 32 -32 27 -42 31 -42
15 0 -8 9 -18 20 -21 23 -7 27 -25 5 -25 -8 0 -15 4 -15 9 0 14 -59 41 -74 35
-14 -5 -33 43 -21 54 3 3 5 0 5 -6 0 -7 4 -12 10 -12 5 0 7 7 4 15 -4 8 -14
15 -24 15 -10 0 -21 6 -23 13 -4 8 -6 7 -6 -3 -1 -8 -10 0 -21 17 -11 18 -25
31 -32 29 -7 -1 -10 -1 -5 1 4 3 7 11 7 19 0 8 5 14 12 14 6 0 9 2 6 5 -3 3
-18 1 -33 -5 -21 -8 -30 -8 -36 1 -4 7 -15 14 -25 15 -9 2 -21 9 -26 16 -6 9
-7 6 -3 -9 5 -17 2 -23 -8 -23 -9 0 -18 6 -20 13 -4 9 -8 8 -16 -3 -7 -11 -5
-24 9 -48 24 -40 25 -49 5 -32 -9 7 -25 33 -35 56 -16 34 -18 49 -10 70 6 15
9 48 8 73 -2 32 1 45 9 44 7 -2 10 3 7 10 -6 17 43 67 65 67 23 0 41 20 41 45
0 26 73 78 88 63 6 -6 57 -12 113 -14 137 -4 171 -13 176 -43 2 -13 -2 -30 -8
-37 -9 -11 -6 -18 12 -34 13 -10 30 -19 37 -20 7 0 24 -11 38 -25 25 -25 75
-55 92 -55 5 0 12 9 15 20 7 25 40 26 75 2 34 -23 91 -40 163 -47 l57 -6 21
44 c11 24 21 56 21 70 0 32 -23 45 -45 27 -12 -10 -20 -9 -41 5 -20 13 -28 14
-34 5 -6 -9 -14 -8 -33 5 -27 17 -41 41 -32 55 3 5 1 11 -5 15 -20 12 -10 25
20 25 17 0 30 4 30 9 0 4 12 8 28 9 15 0 41 4 58 7 22 5 40 2 57 -10 33 -21
110 -17 115 6 3 19 -65 89 -88 89 -13 1 -13 2 0 13 8 7 21 22 28 35 15 27 -1
30 -55 7 -28 -12 -33 -18 -24 -28 12 -15 5 -27 -16 -27 -7 0 -13 10 -13 23 0
12 -9 28 -21 35 -18 11 -24 11 -40 -4 -10 -9 -19 -23 -19 -31 0 -7 -3 -13 -8
-13 -4 0 -13 -14 -21 -31 -10 -24 -11 -36 -3 -49 9 -15 7 -19 -14 -23 -13 -2
-27 0 -30 4 -7 12 -44 11 -44 -1 0 -5 -7 -7 -16 -3 -13 5 -15 2 -9 -18 4 -13
12 -27 17 -30 6 -4 3 -15 -8 -27 -18 -21 -18 -21 -46 36 -15 31 -28 67 -28 79
0 14 -15 34 -40 54 -22 18 -40 37 -40 43 0 7 -10 20 -21 30 -16 13 -24 15 -32
7 -16 -16 30 -96 70 -124 35 -23 44 -41 16 -30 -12 5 -15 2 -11 -8 3 -8 2 -23
-3 -34 -7 -18 -8 -17 -8 5 -1 17 -18 43 -51 75 -27 27 -50 54 -50 61 0 21 -34
42 -55 34 -11 -5 -37 -6 -57 -3 -32 5 -38 3 -38 -13 0 -11 -13 -25 -33 -34
-20 -9 -33 -24 -35 -38 -2 -12 -11 -26 -20 -31 -27 -14 -76 -8 -90 11 -7 10
-20 18 -29 18 -13 0 -14 10 -8 68 4 37 9 70 11 74 3 4 30 -2 61 -13 60 -20 67
-19 76 21 7 27 -24 90 -43 90 -5 0 -10 5 -10 11 0 7 10 9 25 5 18 -5 25 -2 25
8 0 10 6 13 16 9 8 -3 28 4 44 16 16 11 36 21 45 21 8 0 15 5 15 11 0 20 30
40 61 41 31 1 31 1 25 46 -5 35 -2 50 11 64 24 27 33 22 22 -14 -6 -23 -5 -35
4 -41 8 -6 7 -7 -5 -3 -21 6 -23 -4 -4 -29 8 -12 20 -16 34 -12 12 3 24 2 27
-3 6 -9 112 -5 138 5 9 4 17 18 17 30 0 33 10 55 25 55 7 0 15 -6 18 -12 4
-10 7 -10 18 -1 10 10 10 17 -1 38 -17 32 -10 38 43 38 57 -1 76 9 55 30 -12
12 -24 13 -62 5 -62 -13 -76 -1 -76 63 0 36 4 49 18 54 25 9 65 63 58 80 -12
32 -81 8 -74 -26 2 -7 -14 -24 -35 -38 -47 -31 -69 -90 -43 -116 18 -18 8 -48
-19 -59 -8 -3 -15 -15 -15 -26 0 -30 -18 -60 -35 -60 -8 0 -15 -5 -15 -11 0
-6 -6 -9 -14 -6 -7 3 -19 0 -25 -6 -8 -8 -11 -8 -11 2 0 8 7 19 15 25 13 10
13 17 -1 68 l-17 57 -25 -19 c-13 -11 -33 -20 -43 -20 -17 0 -19 8 -19 70 0
52 3 70 13 70 8 0 22 9 32 20 10 11 23 20 29 20 11 0 55 50 96 110 13 19 39
48 56 63 18 16 31 34 28 42 -3 8 6 15 23 19 48 11 83 28 77 37 -3 5 2 6 10 3
9 -3 16 -1 16 5 0 6 5 11 11 11 6 0 8 -7 5 -16 -5 -14 -4 -15 9 -4 8 7 15 9
15 4 0 -4 7 1 15 12 13 17 14 17 15 2 0 -11 5 -15 14 -12 8 3 17 0 22 -7 4 -7
2 -15 -4 -17 -19 -6 -14 -22 7 -22 37 0 174 -78 185 -105 17 -46 -34 -66 -102
-39 -68 28 -70 28 -38 1 16 -14 26 -29 22 -35 -10 -16 11 -60 34 -72 28 -15
38 -5 17 18 -18 20 -12 38 7 23 6 -5 21 -12 33 -15 18 -6 21 -4 16 15 -7 27
34 64 53 48 19 -16 25 4 15 55 -8 46 -6 51 23 40 19 -7 21 -30 4 -37 -10 -3
-9 -9 4 -22 16 -17 18 -17 45 11 34 36 95 64 101 46 4 -13 48 -6 70 11 10 8
16 7 21 -2 6 -9 11 -9 20 3 10 12 7 19 -16 40 -32 30 -28 33 13 11 16 -8 36
-15 45 -15 9 0 35 -14 57 -30 31 -22 42 -26 42 -15 0 8 -9 24 -20 35 -12 12
-18 25 -15 30 3 5 0 18 -7 29 -10 16 -10 23 0 33 6 6 12 25 12 40 0 25 3 28
30 26 27 -2 30 -6 30 -35 0 -17 4 -34 9 -37 5 -3 12 -27 16 -53 4 -27 12 -54
17 -61 13 -15 -9 -95 -23 -86 -5 3 -9 0 -9 -5 0 -18 26 -12 45 9 10 11 18 33
17 50 -1 37 16 49 34 25 8 -10 16 -16 20 -13 12 12 -34 47 -55 41 -15 -4 -22
1 -26 19 -4 13 -5 28 -3 34 1 5 -4 19 -11 32 -7 13 -9 31 -5 40 4 9 6 20 6 25
-1 4 2 7 8 7 5 0 10 -13 10 -28 0 -21 7 -32 25 -40 14 -6 25 -8 25 -3 0 5 -10
12 -22 16 -20 6 -20 8 -5 12 9 2 15 9 12 14 -10 16 29 10 55 -9 14 -9 27 -26
28 -37 4 -22 22 -46 22 -28 0 28 -23 71 -45 83 -23 12 -39 46 -29 62 3 4 18 8
33 8 34 0 44 9 30 27 -14 16 13 63 36 63 8 0 15 5 15 11 0 7 10 9 24 7 35 -7
50 6 51 44 0 28 3 33 23 31 13 -2 21 1 17 7 -10 16 -43 12 -53 -6 -8 -15 -10
-15 -15 0 -8 20 -37 21 -37 2 0 -8 -6 -16 -12 -19 -9 -3 -7 -10 7 -21 20 -17
20 -17 -2 -7 -14 7 -24 8 -28 1 -3 -5 -14 -10 -23 -9 -14 0 -13 2 3 9 18 8 18
9 2 9 -31 1 -77 -28 -71 -44 5 -11 -1 -15 -25 -15 -27 0 -31 -4 -32 -27 l-1
-28 -12 29 c-8 17 -16 24 -20 18 -4 -7 -2 -20 3 -31 10 -19 10 -19 -19 -4 -17
8 -30 19 -30 24 0 5 -4 9 -9 9 -5 0 -8 -11 -8 -25 0 -13 3 -22 8 -19 5 3 9 -2
9 -11 0 -11 6 -15 18 -11 9 3 24 1 32 -4 11 -7 5 -10 -25 -11 -32 0 -36 -2
-20 -9 21 -9 21 -9 -12 -16 -16 -3 -21 0 -17 10 9 24 -25 27 -36 3 -11 -21
-11 -21 4 -3 14 18 16 18 16 3 0 -22 -27 -34 -42 -19 -8 8 -8 15 1 26 9 10 9
16 1 21 -7 4 -14 -2 -17 -14 -3 -12 -11 -21 -19 -21 -7 0 -16 -5 -19 -10 -4
-7 2 -9 19 -4 15 3 26 2 26 -4 0 -5 -9 -12 -20 -15 -14 -4 -18 -10 -13 -23 5
-14 2 -13 -15 4 -12 12 -19 28 -16 37 4 8 1 15 -6 15 -6 0 -9 4 -5 9 3 6 -3 9
-14 8 -15 -1 -17 -5 -10 -24 8 -22 5 -27 -14 -24 -4 1 -10 -6 -13 -14 -9 -24
-22 -18 -27 13 -4 25 -4 25 -6 -5 -1 -23 3 -33 14 -33 8 0 15 -5 15 -11 0 -5
-4 -7 -10 -4 -5 3 -10 1 -10 -4 0 -6 5 -11 10 -11 6 0 10 -4 10 -10 0 -18 -42
-10 -59 12 -21 26 -57 19 -46 -10 5 -13 3 -14 -6 -5 -9 9 -7 18 10 41 25 36
26 43 6 36 -8 -4 -15 -13 -15 -22 0 -8 -3 -13 -6 -9 -11 11 6 42 28 52 13 6
23 17 23 26 0 9 6 24 14 33 8 9 11 19 7 23 -9 9 -36 -29 -31 -44 5 -15 -21
-37 -35 -28 -6 4 -9 3 -8 -2 4 -13 -22 -53 -34 -53 -5 0 -8 9 -5 20 7 28 -8
25 -32 -6 -15 -20 -21 -22 -21 -10 0 9 -4 16 -10 16 -5 0 -10 5 -10 10 0 6 8
10 17 8 11 -2 18 4 20 17 1 16 1 17 -3 2 -5 -15 -8 -16 -20 -6 -12 10 -12 14
-2 20 9 6 6 9 -11 9 -18 0 -22 4 -18 19 4 16 0 19 -24 19 -29 -1 -43 -28 -15
-28 23 0 27 -16 9 -31 -11 -10 -14 -10 -9 -2 5 9 2 11 -7 7 -8 -3 -18 -1 -22
5 -11 18 -31 12 -43 -11 -10 -23 -11 -23 -11 5 -1 34 -21 36 -21 2 0 -14 -4
-25 -10 -25 -5 0 -10 9 -10 20 0 12 -7 20 -16 20 -11 0 -15 6 -11 19 4 17 -9
31 -29 31 -11 0 -2 -39 11 -44 9 -3 15 -17 14 -33 0 -24 -1 -25 -8 -8 -9 23
-61 29 -61 8 0 -7 -6 -13 -12 -13 -17 1 -48 25 -48 38 0 12 29 24 41 16 5 -3
9 -2 9 3 0 10 -50 34 -50 25 -1 -23 -18 -34 -38 -23 -19 10 -22 8 -31 -21 l-9
-33 -1 33 c-1 17 -5 32 -11 32 -5 0 -11 10 -11 23 -1 18 -3 16 -9 -8 -7 -28
-8 -28 -9 -5 -2 47 -14 54 -56 34 -35 -16 -38 -16 -47 0 -6 11 -16 15 -29 11
-13 -5 -19 -2 -19 10 0 9 4 14 9 11 5 -3 12 1 15 10 8 21 8 21 -13 27 -14 3
-18 1 -14 -9 3 -9 -2 -14 -16 -14 -12 0 -24 7 -27 15 -4 8 -10 15 -16 15 -5 0
-7 -4 -4 -8 2 -4 1 -14 -5 -22 -6 -11 -9 -12 -9 -2 0 7 -4 11 -8 8 -5 -3 -19
4 -32 16 l-22 21 7 -22 c5 -17 2 -21 -15 -21 -17 0 -20 4 -15 23 5 16 4 18 -3
8 -6 -8 -17 -11 -27 -8 -9 4 -14 3 -11 -2 3 -5 -5 -11 -19 -13 -17 -4 -25 -1
-25 8 0 16 -43 29 -60 19 -17 -10 -8 27 10 43 13 11 12 12 -4 4 -10 -5 -27 -7
-36 -5 -10 3 -21 0 -24 -6 -5 -7 3 -11 21 -11 26 -1 25 -2 -17 -26 -25 -14
-36 -22 -25 -18 11 4 42 8 70 8 40 1 50 -2 53 -17 2 -10 -4 -20 -15 -24 -10
-4 -27 -16 -37 -27 l-19 -21 5 22 c4 14 0 24 -9 27 -8 3 -11 2 -8 -3 9 -15
-15 -24 -30 -11 -9 7 -15 8 -20 0 -3 -5 -3 -10 2 -10 4 -1 -3 -7 -17 -14 -14
-8 -28 -12 -32 -9 -5 2 -11 -3 -14 -11 -3 -9 -12 -16 -19 -16 -8 0 -10 -9 -7
-27 5 -25 3 -26 -11 -15 -20 17 -37 8 -37 -19 0 -11 -4 -17 -10 -14 -5 3 -10
-3 -10 -14 0 -15 -4 -19 -17 -14 -12 5 -15 2 -10 -10 6 -16 -3 -21 -39 -20 -8
0 -10 -13 -7 -37 5 -36 4 -37 -42 -59 -26 -12 -49 -20 -52 -18 -4 4 -25 -12
-72 -56 -26 -25 -38 -42 -46 -66 -13 -42 -35 -2 -41 73 -4 58 -2 71 18 98 18
26 19 30 5 25 -24 -9 -21 5 4 27 16 13 18 20 9 26 -9 6 -9 19 4 63 9 30 13 64
9 74 -6 15 -8 13 -13 -12 l-6 -30 -5 34 c-5 26 1 43 26 79 18 26 42 49 56 52
13 3 30 18 37 32 6 14 24 29 39 33 14 3 38 15 51 26 28 22 79 26 84 6 2 -9 7
-8 19 4 15 15 13 17 -36 18 -38 1 -59 -4 -76 -18z m-570 -1468 c21 -21 53 -64
71 -95 17 -32 35 -58 40 -58 18 0 44 -58 46 -104 2 -48 16 -69 39 -60 6 3 18
-8 26 -23 7 -15 30 -43 49 -61 33 -32 33 -32 5 -14 -54 34 -86 37 -53 4 9 -9
9 -12 0 -12 -7 0 -12 -16 -12 -40 0 -29 -4 -40 -15 -40 -8 0 -15 7 -15 15 0 8
-4 15 -10 15 -5 0 -10 7 -10 15 0 8 5 15 10 15 6 0 10 -5 10 -12 0 -9 3 -9 12
0 8 8 8 15 -1 26 -7 8 -9 21 -5 27 4 7 3 9 -4 5 -5 -3 -13 0 -15 6 -3 7 -6 3
-6 -9 -1 -13 -7 -23 -16 -23 -9 0 -14 8 -12 21 1 16 -10 27 -50 48 -29 14 -52
32 -52 39 -1 7 -5 11 -10 8 -5 -4 -12 0 -15 6 -6 13 0 -26 9 -59 3 -10 -8 9
-25 42 -22 44 -29 69 -25 95 3 23 1 30 -4 21 -11 -18 -25 46 -22 99 1 19 2 49
2 65 0 36 7 75 15 75 2 0 22 -17 43 -37z"/>
<path d="M4562 3667 c10 -8 15 -17 11 -21 -4 -3 7 -4 23 -1 23 5 36 0 61 -23
18 -17 38 -32 45 -35 9 -4 9 -6 -2 -6 -17 -1 -43 -49 -34 -62 3 -5 0 -9 -5 -9
-6 0 -11 -7 -11 -15 0 -9 6 -12 15 -9 8 4 15 13 15 21 0 11 5 13 18 8 9 -4 26
-7 37 -6 11 0 34 -7 52 -16 32 -17 61 -10 33 7 -13 8 -12 10 2 10 32 0 66 -19
73 -40 8 -25 36 -60 47 -60 4 0 5 6 2 13 -4 10 3 12 26 9 30 -4 31 -3 19 16
-17 27 -8 35 25 23 14 -6 26 -7 26 -2 0 10 -59 23 -71 15 -5 -3 -9 0 -9 7 0 8
-4 8 -15 -1 -13 -11 -14 -10 -10 1 3 9 -8 21 -30 33 -19 10 -32 23 -29 27 3 5
-1 6 -9 3 -8 -3 -18 5 -25 18 -6 13 -11 17 -11 11 -1 -8 -15 -13 -35 -13 -21
0 -36 -6 -40 -15 -3 -8 -13 -15 -21 -15 -10 0 -13 -5 -9 -12 5 -7 3 -8 -6 -3
-10 6 -9 12 6 24 28 24 27 38 -3 45 -14 4 -42 20 -62 35 -20 16 -45 31 -56 34
-11 2 -29 8 -40 12 -19 6 -19 6 -3 -8z"/>
</g>
</svg>
